<?xml version="1.0" encoding="UTF-8"?>
<svg width="24px" height="24px" viewBox="0 0 24 24" version="1.1" xmlns="http://www.w3.org/2000/svg" xmlns:xlink="http://www.w3.org/1999/xlink">
    <title>close-button-small-dark</title>
    <g id="close-button-small-dark" stroke="none" stroke-width="1" fill="none" fill-rule="evenodd">
        <path d="M6.14645125,5.9999825 C6.53697125,5.6094625 7.17014125,5.6094625 7.56066125,5.9999825 L7.56066125,5.9999825 L11.9995538,10.4390925 L16.4393713,5.9999825 C16.8298712,5.6094625 17.4630712,5.6094625 17.8535713,5.9999825 C18.2440712,6.3905125 18.2440712,7.0236725 17.8535713,7.4142025 L13.2677712,12.0000325 L17.8535713,16.5857325 C18.2440712,16.9763325 18.2440712,17.6094325 17.8535713,18.0000325 C17.4630712,18.3905325 16.8298712,18.3905325 16.4393713,18.0000325 L11.9995538,13.5600925 L7.56066125,18.0000325 C7.20018125,18.360494 6.63294622,18.3882218 6.24065775,18.0832159 L6.14645125,18.0000325 C5.75592125,17.6094325 5.75593125,16.9763325 6.14645125,16.5857325 L6.14645125,16.5857325 L10.7322713,12.0000325 L6.14645125,7.4142025 C5.75592125,7.0236725 5.75592125,6.3905125 6.14645125,5.9999825 Z" id="Combined-Shape" fill="#000000" fill-rule="nonzero"></path>
    </g>
</svg>